<?xml version="1.0" encoding="utf-8"?>
<!-- Generator: Adobe Illustrator 24.2.1, SVG Export Plug-In . SVG Version: 6.00 Build 0)  -->
<svg version="1.1" id="Capa_1" xmlns="http://www.w3.org/2000/svg" xmlns:xlink="http://www.w3.org/1999/xlink" x="0px" y="0px"
	 viewBox="0 0 78.5 80.3" style="enable-background:new 0 0 78.5 80.3;" xml:space="preserve">
<style type="text/css">
	.st0{fill:#FFECB5;}
	.st1{fill:#FFFFFF;}
	.st2{fill:#9FDDFC;}
</style>
<path id="luna" class="st0" d="M24.2,10.8C25.5,7,24.9,3.1,22.9,0c0.6,0.1,1.3,0.3,2,0.5c7,2.4,10.8,10.1,8.3,17.2S23.1,28.4,16,26
	c-4-1.4-6.9-4.4-8.2-8c0.3,0.1,0.6,0.2,0.9,0.3C15.1,20.5,22,17.1,24.2,10.8z"/>
<path id="nube-2" class="st1" d="M67.6,57.9H8.1c-5.2-0.8-8.8-5.6-8-10.8C0.8,42.5,4.7,39,9.4,39C7.5,34,8.5,28.4,12,24.4
	c4.6-4.8,11.8-5.9,17.6-2.6C33.7,12,45,7.5,54.8,11.6c8,3.4,12.7,11.7,11.5,20.3c7.2,0.5,12.7,6.7,12.2,13.9
	C78.2,51.9,73.6,56.9,67.6,57.9z"/>
<g id="lluvia">
	<path id="gota_6_" class="st2" d="M19.7,67.7c0,1.6-1.3,2.9-2.9,2.9s-2.9-1.3-2.9-2.9s2.9-6,2.9-6S19.7,66,19.7,67.7z"/>
	<path id="gota_5_" class="st2" d="M27.2,77.4c0,1.6-1.3,2.9-2.9,2.9c-1.6,0-2.9-1.3-2.9-2.9s2.9-6,2.9-6S27.2,75.8,27.2,77.4z"/>
	<path id="gota_4_" class="st2" d="M42.2,77.4c0,1.6-1.3,2.9-2.9,2.9c-1.6,0-2.9-1.3-2.9-2.9s2.9-6,2.9-6S42.2,75.8,42.2,77.4z"/>
	<path id="gota_3_" class="st2" d="M57.2,77.4c0,1.6-1.3,2.9-2.9,2.9s-2.9-1.3-2.9-2.9s2.9-6,2.9-6S57.2,75.8,57.2,77.4z"/>
	<path id="gota_2_" class="st2" d="M34.7,67.7c0,1.6-1.3,2.9-2.9,2.9c-1.6,0-2.9-1.3-2.9-2.9s2.9-6,2.9-6S34.7,66,34.7,67.7z"/>
	<path id="gota_1_" class="st2" d="M49.7,67.7c0,1.6-1.3,2.9-2.9,2.9s-2.9-1.3-2.9-2.9s2.9-6,2.9-6S49.7,66,49.7,67.7z"/>
	<path id="gota" class="st2" d="M64.7,67.7c0,1.6-1.3,2.9-2.9,2.9s-2.9-1.3-2.9-2.9s2.9-6,2.9-6S64.7,66,64.7,67.7z"/>
</g>
</svg>
