<svg xmlns="http://www.w3.org/2000/svg" viewBox="0 0 95.3 55.5">
  <defs>
    <style>
      .cls-1 {
        fill: #b9d7ff;
      }

      .cls-2 {
        fill: #fff;
      }
    </style>
  </defs>
  <g id="Capa_2" data-name="Capa 2">
    <g id="Capa_2-2" data-name="Capa 2">
      <g>
        <path id="nube" class="cls-1" d="M61.8,43.6H7.2A8.8,8.8,0,0,1,8.4,26.2a13.1,13.1,0,0,1,2.4-13.3A13.4,13.4,0,0,1,27,10.5a17.6,17.6,0,0,1,33.6,9.2,12.2,12.2,0,0,1,11.7,12A12.2,12.2,0,0,1,61.8,43.6Z"/>
        <path id="nube-2" data-name="nube" class="cls-2" d="M83.9,55.5H24.4a9.5,9.5,0,0,1,1.3-18.9A14.3,14.3,0,0,1,28.3,22a14.5,14.5,0,0,1,17.6-2.6A19.2,19.2,0,0,1,82.6,29.5a13.1,13.1,0,0,1,1.3,26Z"/>
      </g>
    </g>
  </g>
</svg>
