<?xml version="1.0" encoding="utf-8"?>
<!-- Generator: Adobe Illustrator 24.2.1, SVG Export Plug-In . SVG Version: 6.00 Build 0)  -->
<svg version="1.1" id="Capa_1" xmlns="http://www.w3.org/2000/svg" xmlns:xlink="http://www.w3.org/1999/xlink" x="0px" y="0px"
	 viewBox="0 0 94.7 86.5" style="enable-background:new 0 0 94.7 86.5;" xml:space="preserve">
<style type="text/css">
	.st0{fill:#B9D7FF;}
	.st1{fill:#E4ECF9;}
	.st2{fill:#FEDC7B;}
</style>
<path id="nube" class="st0" d="M61.6,43.7H7c-4.8-1-7.8-5.6-6.8-10.4c0.8-3.9,4.1-6.7,8-7c-1.7-4.5-0.8-9.7,2.4-13.3
	c4.2-4.4,10.9-5.4,16.2-2.4c3.9-8.9,14.3-13,23.2-9.1C57.1,4.6,61.4,12,60.4,19.8c6.5,0.3,11.6,5.5,11.7,12
	C72,37.8,67.6,42.8,61.6,43.7z"/>
<path id="nube-2" class="st1" d="M83.7,55.6H24.2c-5.2-0.8-8.8-5.6-8-10.8c0.7-4.6,4.6-8.1,9.3-8.1c-1.9-5-0.9-10.6,2.6-14.6
	c4.6-4.8,11.8-5.9,17.6-2.6C49.9,9.7,61.1,5.1,70.9,9.3c8,3.4,12.7,11.7,11.5,20.3c7.2,0.5,12.7,6.7,12.2,13.9
	C94.3,49.6,89.7,54.6,83.7,55.6z"/>
<polygon id="trueno" class="st2" points="53.7,50.6 63.5,50.6 58.3,60.9 68.1,60.9 49.1,86.5 54.2,68.6 46.2,68.6 "/>
</svg>
