<?xml version="1.0" encoding="utf-8"?>
<!-- Generator: Adobe Illustrator 24.2.1, SVG Export Plug-In . SVG Version: 6.00 Build 0)  -->
<svg version="1.1" id="Capa_1" xmlns="http://www.w3.org/2000/svg" xmlns:xlink="http://www.w3.org/1999/xlink" x="0px" y="0px"
	 viewBox="0 0 42.2 41.4" style="enable-background:new 0 0 42.2 41.4;" xml:space="preserve">
<style type="text/css">
	.st0{fill:#FFECB5;}
	.st1{fill:#FFF0AF;}
	.st2{fill:#FFE07D;}
</style>
<g id="luna">
	<g id="Capa_2-2">
		<path class="st0" d="M16.6,15.1c0-5.8,2.7-11.3,7.3-14.8c-1-0.2-2.1-0.3-3.1-0.3C9.4-0.1,0.1,9.1,0,20.6s9.1,20.8,20.6,20.8
			c6.3,0,12.2-2.8,16.2-7.6h-1.4C25,33.7,16.7,25.4,16.6,15.1z"/>
	</g>
</g>
<g id="estrellas">
	<path id="est-3" class="st1" d="M27.3,8.3h-0.7V7.7c0-0.3-0.3-0.6-0.6-0.6c-0.3,0-0.6,0.3-0.6,0.6v0.7h-0.7c-0.3,0-0.6,0.3-0.6,0.6
		c0,0.3,0.3,0.6,0.6,0.6h0.7v0.7c0,0.3,0.3,0.6,0.6,0.6c0.3,0,0.6-0.3,0.6-0.6V9.5h0.7c0.3,0,0.6-0.3,0.6-0.6
		C27.9,8.6,27.6,8.3,27.3,8.3z"/>
	<g id="est-2">
		<path class="st2" d="M38.5,2c-0.3,0-0.6,0.3-0.6,0.6v1.3c0,0.3,0.3,0.6,0.6,0.6S39,4.2,39,3.9V2.6C39,2.3,38.8,2,38.5,2z"/>
		<path class="st2" d="M38.5,7c-0.3,0-0.6,0.3-0.6,0.6v1.3c0,0.3,0.3,0.6,0.6,0.6S39,9.2,39,8.9V7.6C39,7.3,38.8,7,38.5,7z"/>
		<path class="st2" d="M41.6,5.2h-1.3c-0.3,0-0.6,0.3-0.6,0.6c0,0.3,0.3,0.6,0.6,0.6h1.3c0.3,0,0.6-0.3,0.6-0.6
			C42.2,5.4,41.9,5.2,41.6,5.2z"/>
		<path class="st2" d="M36.6,5.2h-1.3c-0.3,0-0.6,0.3-0.6,0.6c0,0.3,0.3,0.6,0.6,0.6h1.3c0.3,0,0.6-0.3,0.6-0.6
			C37.1,5.4,36.9,5.2,36.6,5.2z"/>
	</g>
	<g id="est-1">
		<path class="st2" d="M32.8,15.8c-0.3,0-0.6,0.3-0.6,0.6v1.3c0,0.3,0.3,0.6,0.6,0.6c0.3,0,0.6-0.3,0.6-0.6v-1.3
			C33.3,16,33.1,15.8,32.8,15.8z"/>
		<path class="st2" d="M32.8,20.8c-0.3,0-0.6,0.3-0.6,0.6v1.3c0,0.3,0.3,0.6,0.6,0.6c0.3,0,0.6-0.3,0.6-0.6v-1.3
			C33.3,21,33.1,20.8,32.8,20.8z"/>
		<path class="st2" d="M35.9,18.9h-1.3c-0.3,0-0.6,0.3-0.6,0.6c0,0.3,0.3,0.6,0.6,0.6h1.3c0.3,0,0.6-0.3,0.6-0.6
			C36.5,19.1,36.2,18.9,35.9,18.9z"/>
		<path class="st2" d="M30.9,18.9h-1.3c-0.3,0-0.6,0.3-0.6,0.6c0,0.3,0.3,0.6,0.6,0.6h1.3c0.3,0,0.6-0.3,0.6-0.6
			C31.5,19.1,31.2,18.9,30.9,18.9z"/>
	</g>
</g>
</svg>
