<svg id="Capa_1" enable-background="new 0 0 498.249 498.249" height="512" viewBox="0 0 498.249 498.249" width="512" xmlns="http://www.w3.org/2000/svg"><g><path d="m180.635 182.312-57.28-22.82-20.882-3.219-43.654 31.791 4.525 14.668 57.69 22.28h.01l.002-.001 23.184-2.545 38.672-28.945z" fill="#fedf30"/><path d="m123.355 159.492-21.42 15.61-38.59 27.63-8.06-3.11s-34.77-12.29-33.53-13.53 67.37-40.5 67.37-40.5z" fill="#aa9ea9"/><g><path d="m16.77 26.961h38.514v455.304h-38.514z" fill="#9b8e99"/></g><path d="m16.77 26.961h23.145v455.303h-23.145z" fill="#8b8089"/><path d="m442.965 283.592-57.88-22.35s-16.954-.304-17.491 0-39.778 28.077-39.778 28.077l-2.331 14.623 2.39.92 112.11 42.43 34.78-50.01z" fill="#fedf30"/><path d="m311.705 232.912-57.69-22.27h-19.577l-46.908 31.645 6.885 11.045 57.679 22.28h.011l.004-.003 30.989-7.182 32.512-28.078z" fill="#fedf30"/><path d="m385.085 261.242-59.6 42.7h-.01l-73.37-28.33 59.6-42.7z" fill="#aa9ea9"/><path d="m254.015 210.642-59.6 42.69-73.37-28.32 59.59-42.7z" fill="#aa9ea9"/><g><path d="m68.361 497.043h-64.668c-2.04 0-3.693-1.653-3.693-3.693v-22.988c0-7.391 5.992-13.383 13.383-13.383h45.289c7.391 0 13.383 5.992 13.383 13.383v22.988c-.001 2.039-1.654 3.693-3.694 3.693z" fill="#baafb9"/><circle cx="36.027" cy="33.976" fill="#f58a97" r="32.77"/><g><path d="m442.965 28.732h38.514v452.877h-38.514z" fill="#9b8e99"/></g><path d="m442.965 28.732h23.145v452.876h-23.145z" fill="#8b8089"/><circle cx="462.222" cy="33.976" fill="#f58a97" r="32.77"/><path d="m33.293 33.976c0-12.684 7.224-23.68 17.765-29.127-4.5-2.325-9.617-3.643-15.032-3.643-18.098 0-32.77 14.672-32.77 32.77s14.672 32.77 32.77 32.77c5.415 0 10.536-1.32 15.036-3.645-10.54-5.448-17.769-16.442-17.769-29.125z" fill="#f07281"/><path d="m459.488 33.976c0-12.684 7.221-23.681 17.762-29.128-4.5-2.325-9.613-3.641-15.028-3.641-18.098 0-32.77 14.672-32.77 32.77s14.672 32.77 32.77 32.77c5.415 0 10.532-1.318 15.032-3.643-10.541-5.449-17.766-16.445-17.766-29.128z" fill="#f07281"/><g id="XMLID_160_"><g><g fill="#baafb9"><path d="m478.505 112.372h-38.52l-16.4 8.847-25.881 36.612 2.051 15.83h78.75c5.38 0 9.73-4.36 9.73-9.73v-41.83c0-5.369-4.35-9.729-9.73-9.729z"/><path d="m378.145 112.372h-78.66l-11.782 4.658-30.865 45.731 2.427 10.901h78.65l29.229-17.756 19.274-38.253z"/><path d="m237.655 112.372h-78.66l-14.598 4.502-28.404 47.983 2.782 8.805h78.65l23.398-13.149 22.172-41.488z"/><path d="m97.165 112.372h-77.42c-5.38 0-9.73 4.36-9.73 9.73v41.83c0 5.37 4.35 9.73 9.73 9.73h37.19l28.312-15.425 22.718-37.53z"/></g><path d="m439.985 112.372-40.23 61.29h-61.84l40.23-61.29z" fill="#fee97d"/><path d="m299.485 112.372-40.22 61.29h-61.84l40.23-61.29z" fill="#fee97d"/><path d="m158.995 112.372-40.22 61.29h-61.84l40.23-61.29z" fill="#fee97d"/></g></g><g id="XMLID_499_"><g><g fill="#fee97d"><path d="m97.165 304.862h-77.42c-5.38 0-9.73 4.36-9.73 9.73v41.83c0 5.38 4.35 9.74 9.73 9.74h37.19l28.516-17.618 24.189-39.111z"/><path d="m237.655 304.862h-78.66l-18.12 9.608-28.705 44.554 6.605 7.138h78.65l29.564-10.66 24.302-45.963z"/><path d="m378.145 304.862h-78.66l-19.767 9.76-28.427 44.13 7.974 7.41h78.65l21.97-5.868 24.089-39.12z"/><path d="m478.505 304.862h-38.52l-27.739 16.827-16.781 34.521 4.29 9.951h78.75c5.38 0 9.73-4.36 9.73-9.74v-41.83c0-5.369-4.35-9.729-9.73-9.729z"/></g><path d="m158.995 304.862-40.22 61.3h-61.84l40.23-61.3z" fill="#baafb9"/><path d="m299.485 304.862-40.22 61.3h-61.84l40.23-61.3z" fill="#baafb9"/><path d="m439.985 304.862-40.23 61.3h-61.84l40.23-61.3z" fill="#baafb9"/></g></g></g><path d="m431.296 497.043h61.852c2.817 0 5.101-2.284 5.101-5.101v-21.579c0-7.391-5.992-13.383-13.383-13.383h-45.289c-7.391 0-13.383 5.992-13.383 13.383v21.579c.001 2.817 2.285 5.101 5.102 5.101z" fill="#baafb9"/></g></svg>